<?xml version="1.0" encoding="UTF-8"?>
<svg width="177px" height="178px" viewBox="0 0 177 178" version="1.1" xmlns="http://www.w3.org/2000/svg" xmlns:xlink="http://www.w3.org/1999/xlink">
    <!-- Generator: Sketch 51.2 (57519) - http://www.bohemiancoding.com/sketch -->
    <title>Combined Shape</title>
    <desc>Created with Sketch.</desc>
    <defs></defs>
    <g id="Symbols" stroke="none" stroke-width="1" fill="none" fill-rule="evenodd">
        <g id="Path" transform="translate(0.000000, 1.000000)" fill="#000000" stroke="#000000">
            <path d="M0.671343976,0.206455004 L22.6198285,0.206455004 L54.645599,65.7003399 L55.6855293,65.7003399 L88.4683239,0.206455004 L121.531852,65.7003399 L154.563222,0.206455004 L175.51306,0.206455004 L175.51306,175.756089 L154.563222,175.756089 L121.531852,110.470364 L88.4683239,175.756089 L55.6855293,111.744963 L54.645599,111.744963 L22.6198285,175.756089 L0.671343976,175.756089 L0.671343976,0.206455004 Z M156.52095,40.4370038 L132.393109,87.182625 L132.393109,88.70614 L156.52095,135.550086 L156.52095,40.4370038 Z M20.3070372,41.3747475 L20.3070372,134.168434 L43.6039981,88.711787 L43.6039981,87.6266612 L20.3070372,41.3747475 Z M66.6645519,87.6162315 L66.6645519,88.5779389 L87.3045406,131.661389 L88.8142431,131.661389 L110.561955,88.5779389 L110.561955,87.6162315 L88.8142431,44.44239 L87.3045406,44.44239 L66.6645519,87.6162315 Z" id="Combined-Shape"></path>
        </g>
    </g>
</svg>