<?xml version="1.0" encoding="UTF-8"?>
<!DOCTYPE svg PUBLIC "-//W3C//DTD SVG 1.1//EN"
  "http://www.w3.org/Graphics/SVG/1.1/DTD/svg11.dtd">
<!-- Created with Inkpad (http://www.taptrix.com/) --><svg xmlns:inkpad="http://taptrix.com/inkpad/svg_extensions" height="409pt" xmlns:xlink="http://www.w3.org/1999/xlink" xmlns="http://www.w3.org/2000/svg" width="409pt" version="1.1" viewBox="0,0,409,409">
<defs/>
<g id="Untitled" inkpad:layerName="Untitled">
<path d="M251.305+409.1C300.479+392.934+351+380.135+396.132+353.189C400.847+350.496+402.195+341.739+396.132+339.718C349.653+320.184+303.847+299.975+255.347+287.177C247.264+285.156+241.201+295.26+247.264+301.322C258.715+312.774+269.493+324.9+278.924+337.699C179.229+336.35+63.3678+339.719+32.3816+221.164C18.9094+168.622+26.318+110.018+59.9997+66.233C95.7+20.4252+154.304+10.321+208.867+13.6891C214.256+13.6891+215.603+5.60573+210.214+4.2585C88.2903-22.0124-6.68894+77.0086+10.1513+198.259C18.2347+258.21+46.5264+308.731+103.783+334.328C154.978+357.232+216.277+355.884+272.186+354.537C260.735+367.335+250.631+381.48+242.547+396.299C238.506+403.037+243.895+411.794+251.305+409.1ZM295.763+348.475C297.11+344.434+295.089+341.739+291.721+340.391C291.721+340.391+291.721+340.391+291.047+339.718C287.679+328.94+282.291+319.51+276.228+310.753C309.235+320.857+341.568+334.329+373.228+347.128C340.221+364.642+304.52+374.746+269.492+386.198C279.596+374.071+289.7+362.62+295.763+348.475Z" opacity="1" fill="#ffffff"/>
</g>
</svg>
